<?xml version="1.0" standalone="no"?>
<!DOCTYPE svg PUBLIC "-//W3C//DTD SVG 20010904//EN"
 "http://www.w3.org/TR/2001/REC-SVG-20010904/DTD/svg10.dtd">
<svg version="1.0" xmlns="http://www.w3.org/2000/svg"
 width="552.000000pt" height="552.000000pt" viewBox="0 0 552.000000 552.000000"
 preserveAspectRatio="xMidYMid meet">
<metadata>
Created by potrace 1.16, written by Peter Selinger 2001-2019
</metadata>
<g transform="translate(0.000000,552.000000) scale(0.100000,-0.100000)"
fill="#000000" stroke="none">
<path d="M0 2760 l0 -2760 2760 0 2760 0 0 2760 0 2760 -2760 0 -2760 0 0
-2760z m2859 1209 c146 -33 241 -120 350 -319 40 -74 216 -389 389 -700 173
-311 328 -593 344 -626 140 -297 -77 -634 -408 -634 -162 0 -282 69 -385 221
-114 170 -179 204 -389 204 -130 0 -137 -1 -200 -31 -84 -40 -128 -78 -184
-162 -53 -80 -92 -121 -149 -160 -77 -53 -131 -67 -253 -67 -107 0 -112 1
-186 38 -179 88 -282 281 -250 470 42 244 267 410 508 376 127 -18 217 -76
333 -218 152 -184 441 -128 441 86 0 51 -16 82 -239 481 -105 189 -204 369
-220 400 -90 180 -59 376 83 518 61 61 139 106 213 123 52 12 149 13 202 0z"/>
</g>
</svg>
